/* XPM */
static char *_d404dbb235747c8c088c624376daeb75fkrIXnn2o2lycXh[] = {
/* columns rows colors chars-per-pixel */
"32 32 11 1 ",
"  c None",
". c #145E53",
"X c #11727A",
"o c #1C919A",
"O c #1AAAA7",
"+ c #20C5B5",
"@ c #1AD8CF",
"# c #4AEDD9",
"$ c #A1FBE8",
"% c #D5FFF6",
"& c white",
/* pixels */
"                                ",
"                                ",
"                                ",
"                                ",
"            XXXXXXXX            ",
"           X&&&&&&&&X           ",
"          X&&$$$$$$$%X          ",
"         X&$$#####$%$$.         ",
"        X&$#$####$$%##$.        ",
"       X&$###$##$$$%#@#$.       ",
"       X&$###$$$$$%$@@@$.       ",
"      X&$&$#$&&&&&%#@@#+#.      ",
"      X&$$&$&$####$%@#++#.      ",
"     X&&##$&$####$$$O+++O#.     ",
"     X&$##$&####$$$$o+++O#.     ",
"     X&$##$&###$$$$#o+++O#.     ",
"     X&$##$&##$$$$##o+++O#.     ",
"     X&$#$%@#$$$$##+oOO+O#.     ",
"     X&$&&##+#$$##+oOO+OO#.     ",
"     X%&##@@+OOOOOOOO+++O+.     ",
"     X%##@@+O++++++OO++++#.     ",
"      .#@@@O++++++++O+++#.      ",
"      .#@@@O++++++++O+++$.      ",
"       .#@+O+++++++++O+#.       ",
"       .##O++++++++++O+$.       ",
"        .#O+++++++###+#.        ",
"         .+####$#$$$$#.         ",
"          ............          ",
"                                ",
"                                ",
"                                ",
"                                "
};
