/* XPM */
static char *_4a861140a1a4f19d67bfb5035db61251XyK8hF9VvF47a5T[] = {
/* columns rows colors chars-per-pixel */
"32 32 4 1 ",
"  c None",
". c #F83800",
"X c #AF7F00",
"o c #FFA347",
/* pixels */
"                                ",
"                                ",
"                                ",
"                                ",
"                                ",
"           ........             ",
"           ........             ",
"         ...............        ",
"         ...............        ",
"         XXXXXooooXoo           ",
"        XooXXoooooXooooo        ",
"        XooXXoooooXooooo        ",
"        XooXXXoooooXXooooo      ",
"        XooXXXoooooXXooooo      ",
"        XXXoooooooXXXXXX        ",
"           oooooooooooo         ",
"           oooooooooooo         ",
"         XXXX.XXXXX             ",
"         XXXX.XXXXX             ",
"        XXXXX.XXXX.XXXXX        ",
"      XXXXXXX......XXXXXXX      ",
"      XXXXXXX......XXXXXXX      ",
"      oooXX..o....o..XXooo      ",
"      oooXX..o....o..XXooo      ",
"      ooooo..........ooooo      ",
"      ooo..............ooo      ",
"      ooo..............ooo      ",
"         .....    .....         ",
"         .....    .....         ",
"        XXXXX      XXXXX        ",
"      XXXXXXX      XXXXXXX      ",
"      XXXXXXX      XXXXXXX      "
};
